<?xml version="1.0" encoding="UTF-8"?>
<!-- Generator: Adobe Illustrator 27.2.0, SVG Export Plug-In . SVG Version: 6.00 Build 0)  -->
<svg xmlns="http://www.w3.org/2000/svg" xmlns:xlink="http://www.w3.org/1999/xlink" version="1.1" id="Layer_1" x="0px" y="0px" viewBox="0 0 109 109" style="enable-background:new 0 0 109 109;" xml:space="preserve">
<style type="text/css">
	.st0{fill:#28638F;}
	.st1{fill:#FFFFFF;}
</style>
<g>
	<rect x="3" class="st0" width="103" height="109"></rect>
	<g>
		<g>
			<path class="st1" d="M17.7,98.7l-0.9-2.3h-4.3l-0.9,2.3h-1.3l3.9-9.4h0.9l3.9,9.4H17.7z M13,95.4h3.6l-1.7-4.7L13,95.4z"></path>
			<path class="st1" d="M24.6,89.1c0.9,0,2,0.1,2.7,0.4v1.1c-0.7-0.3-1.4-0.4-2.7-0.4c-2.3,0-3,1.9-3,3.7c0,1.9,0.7,3.7,3,3.7     c1.3,0,2-0.1,2.7-0.4v1.1c-0.9,0.3-1.9,0.4-2.7,0.4c-3.1,0-4.3-2.1-4.3-4.9C20.3,91.3,21.6,89.1,24.6,89.1z"></path>
			<path class="st1" d="M34,89.1c0.9,0,2,0.1,2.7,0.4v1.1c-0.7-0.3-1.4-0.4-2.7-0.4c-2.3,0-3,1.9-3,3.7c0,1.9,0.7,3.7,3,3.7     c1.3,0,2-0.1,2.7-0.4v1.1c-0.9,0.3-1.9,0.4-2.7,0.4c-3.1,0-4.3-2.1-4.3-4.9C29.6,91.3,30.9,89.1,34,89.1z"></path>
			<path class="st1" d="M40.5,95v3.7h-1.3v-9.3h4c2.3,0,3,1.1,3,2.9c0,1.3-0.4,2.3-1.7,2.7l2.1,3.9h-1.4l-2-3.7h-2.7V95z M43,90.4     h-2.6v3.3H43c1.6,0,1.9-0.7,1.9-1.7C44.9,91,44.6,90.4,43,90.4z"></path>
			<path class="st1" d="M54.8,94.4h-4.9v3.1h5.6v1.1h-6.7v-9.3h6.7v1.1h-5.6v2.9h4.9V94.4z"></path>
			<path class="st1" d="M57.9,98.7v-9.3h3.1c3.1,0,4.4,1.9,4.4,4.7s-1.3,4.7-4.4,4.7h-3.1V98.7z M61.1,97.6c2.4,0,3.1-1.4,3.1-3.6     s-0.7-3.6-3.1-3.6h-1.9v7h1.9V97.6z"></path>
			<path class="st1" d="M68.3,98.7v-9.3h1.3v9.3H68.3z"></path>
			<path class="st1" d="M76.5,90.4v8.2h-1.3v-8.2h-3.1v-1.1h7.4v1.1H76.5z"></path>
			<path class="st1" d="M87.8,94.4h-4.9v3.1h5.6v1.1h-6.7v-9.3h6.7v1.1h-5.6v2.9h4.9V94.4z"></path>
			<path class="st1" d="M90.9,98.7v-9.3h3.1c3.1,0,4.4,1.9,4.4,4.7s-1.3,4.7-4.4,4.7h-3.1V98.7z M94.1,97.6c2.4,0,3.1-1.4,3.1-3.6     s-0.7-3.6-3.1-3.6h-1.9v7h1.9V97.6z"></path>
		</g>
		<g>
			<polygon class="st1" points="54.5,10.2 15,23.5 15,30 54.5,16.7 94,30 94,23.5    "></polygon>
			<path class="st1" d="M59.3,38.6c-1.1,0-2,0.9-2,2v22.3h4V40.5C61.2,39.5,60.3,38.6,59.3,38.6z"></path>
			<path class="st1" d="M66.6,40.5c-1.1,0-2,0.9-2,2v20.5h4V42.5C68.5,41.5,67.6,40.5,66.6,40.5z"></path>
			<path class="st1" d="M73.9,42.5c-1.1,0-2,0.9-2,2v18.5h4V44.5C75.8,43.5,74.9,42.5,73.9,42.5z"></path>
			<path class="st1" d="M81.2,44.5c-1.1,0-2,0.9-2,2v16.5h3.9V46.5C83.1,45.3,82.2,44.5,81.2,44.5z"></path>
			<path class="st1" d="M26.1,40.8l-3.3,1.1v21h2.9V46.5c0-1.1,0.9-2,2-2c1.1,0,2,0.9,2,2v16.5H33V44.5c0-1.1,0.9-2,2-2     c1.1,0,2,0.9,2,2v18.5h3.3V42.5c0-1.1,0.9-2,2-2c1.1,0,2,0.9,2,2v20.5h3.3V40.5c0-1.1,0.9-2,2-2c1.1,0,2,0.9,2,2v22.3h2.9V31.3     L26.1,40.8L26.1,40.8z"></path>
			<polygon class="st1" points="19,32.6 19,32.6 19,32.6 19,39.3 20,38.9 54.5,27.3 89.9,39.3 89.9,32.6 54.5,20.7    "></polygon>
			<g>
				<path class="st1" d="M27.6,76.7c-0.7,0-0.7,0-1,0.7l-0.7,1.9c-0.3,1-0.3,1,0.3,1.1l0.9,0.1c0.3,0.1,0.1,0.7-0.1,0.7      c-0.7,0-1.4-0.1-2.3-0.1c-0.9,0-1.6,0-2,0.1c-0.3-0.1-0.3-0.6,0-0.7l0.7-0.1c0.9-0.1,1.3-0.6,1.9-2l2.9-6.7      c0.4-1.1,0.7-1.9,0.7-2.4c0.6-0.1,1.1-0.7,1.3-1.1c0.3-0.1,0.4,0,0.4,0.1c0.1,0.3,0.6,1.9,1.3,3.6l2.7,7c0.3,1,0.6,1.3,1.7,1.6      l0.4,0.1c0.3,0.1,0.1,0.7-0.1,0.7c-0.7,0-1.4-0.1-2.4-0.1c-1,0-1.9,0-2.7,0.1c-0.3-0.1-0.3-0.6,0-0.7l0.6-0.1      c0.7-0.1,0.7-0.3,0.4-1.1l-0.9-1.9c-0.3-0.7-0.3-0.7-1-0.7H27.6z M29.9,75.7c0.7,0,0.9,0,0.6-0.9l-0.9-2.4      c-0.3-0.7-0.3-0.9-0.4-1l0,0c-0.1,0.1-0.1,0.4-0.4,1l-1,2.6c-0.3,0.9-0.3,0.9,0.4,0.9h1.7V75.7z"></path>
				<path class="st1" d="M49,68.5c0,0.6,0.1,2,0.3,3.3c-0.1,0.3-0.6,0.3-0.7,0c-0.4-1.6-1.4-3-4.1-3c-2.6,0-5,1.7-5,5.7      c0,4,2.6,6.2,5.3,6.2s3.9-2.1,4.3-3c0.1-0.3,0.6-0.3,0.7,0c-0.1,1.3-0.6,2.7-1,3.1c-0.9,0.1-2,0.6-4,0.6c-1.9,0-3.7-0.3-5.1-1.3      c-1.6-1.1-2.9-2.9-2.9-5.3c0-2.4,1-4.1,2.4-5.3c1.4-1.1,3.4-1.7,5.7-1.7C47,67.9,48.9,68.5,49,68.5z"></path>
				<path class="st1" d="M62.1,74.1c1,0,1,0,1-0.7v-1.9c0-2-0.1-2.1-1.4-2.3l-0.6-0.1c-0.1-0.1-0.1-0.7,0-0.7c1.1,0,2,0.1,3,0.1      c1,0,1.9,0,3-0.1c0.3,0.1,0.3,0.6,0,0.7l-0.6,0.1c-1.3,0.1-1.4,0.3-1.4,2.3v6.6c0,2,0.1,2.1,1.4,2.3l0.7,0.1      c0.1,0.1,0.1,0.7,0,0.7c-1.3,0-2.1-0.1-3.1-0.1s-1.9,0-3,0.1c-0.3-0.1-0.3-0.6,0-0.7l0.6-0.1c1.3-0.1,1.4-0.3,1.4-2.3v-2.3      c0-0.7,0-0.7-1-0.7h-5.1c-1,0-1,0-1,0.7v2.3c0,2,0.1,2.1,1.4,2.3l0.9,0.1c0.1,0.1,0.1,0.7,0,0.7c-1.3,0-2.3-0.1-3.3-0.1      s-1.9,0-2.7,0.1c-0.3-0.1-0.3-0.6,0-0.7l0.3-0.1c1.3-0.3,1.4-0.3,1.4-2.3v-6.6c0-2-0.1-2.1-1.4-2.3l-0.7-0.1      c-0.1-0.1-0.1-0.7,0-0.7c1.3,0,2.1,0.1,3.1,0.1s1.9,0,2.9-0.1c0.3,0.1,0.3,0.6,0,0.7l-0.4,0.1c-1.3,0.3-1.4,0.3-1.4,2.3v1.9      c0,0.7,0.1,0.7,1,0.7H62.1z"></path>
				<path class="st1" d="M81.8,68.5c0,0.6,0.1,2,0.3,3.3c-0.1,0.3-0.6,0.3-0.7,0c-0.4-1.6-1.4-3-4.1-3c-2.6,0-5,1.7-5,5.7      c0,4,2.6,6.2,5.3,6.2c2.7,0,3.9-2.1,4.3-3c0.1-0.3,0.6-0.3,0.7,0c-0.1,1.3-0.6,2.7-1,3.1c-0.9,0.1-2,0.6-4,0.6      c-1.9,0-3.7-0.3-5.1-1.3c-1.6-1.1-2.9-2.9-2.9-5.3c0-2.4,1-4.1,2.4-5.3c1.4-1.1,3.4-1.7,5.7-1.7C79.6,67.9,81.5,68.5,81.8,68.5z      "></path>
			</g>
			<path class="st1" d="M87.2,79.1c1.4,0,2.6,0.9,2.6,2.4c0,1.6-1.1,2.4-2.6,2.4c-1.4,0-2.6-0.9-2.6-2.4     C84.7,80,85.8,79.1,87.2,79.1z M87.2,83.8c1.4,0,2.3-0.9,2.3-2.3c0-1.4-1-2.3-2.3-2.3c-1.3,0-2.3,0.9-2.3,2.3     C84.8,83,85.8,83.8,87.2,83.8z M86.4,83h-0.3v-2.9h1.3c0.7,0,0.9,0.4,0.9,0.9c0,0.4-0.3,0.7-0.6,0.7l0.6,1.3h-0.3l-0.6-1.3h-1V83     z M86.4,81.5h1c0.4,0,0.6-0.3,0.6-0.6c0-0.3,0-0.6-0.6-0.6h-1V81.5z"></path>
		</g>
	</g>
</g>
</svg>
