<?xml version="1.0" encoding="UTF-8"?>
<svg xmlns="http://www.w3.org/2000/svg" xmlns:xlink="http://www.w3.org/1999/xlink" id="Layer_1" viewBox="0 0 212.64 212.65">
  <defs>
    <style>.cls-1{fill:#fff;}.cls-2{fill:#af9a71;}.cls-3{fill:url(#radial-gradient);opacity:.8;}</style>
    <radialGradient id="radial-gradient" cx="105.83" cy="105.84" fx="105.83" fy="105.84" r="63.56" gradientTransform="translate(105.84 -43.84) rotate(45)" gradientUnits="userSpaceOnUse">
      <stop offset="0" stop-color="#fffcd7" stop-opacity=".75"></stop>
      <stop offset="1" stop-color="#fffcd7" stop-opacity="0"></stop>
    </radialGradient>
  </defs>
  <polygon class="cls-2" points="208.43 112.26 208.3 112.07 212.64 107.16 207.72 101.41 212.06 95.21 207.27 90.75 210.49 85.04 204.48 80.44 207.44 73.47 201.82 70.1 203.79 63.84 196.95 60.59 198.4 53.16 192.2 51.03 192.83 44.51 185.46 42.75 185.34 35.18 178.83 34.39 178.09 27.87 170.52 27.68 168.82 20.31 162.29 20.88 160.2 14.67 152.76 16.06 149.57 9.19 143.3 11.11 139.97 5.46 132.98 8.37 128.43 2.32 122.69 5.5 118.26 .67 112.03 4.97 106.32 0 101.38 4.3 96.04 .5 90.83 6 84.21 2.32 80.27 7.56 74.26 4.95 70.31 11.41 63.07 9.19 60.31 15.14 53.88 13.83 51.36 20.97 43.82 20.31 42.35 26.69 35.8 26.76 34.82 34.26 27.3 35.18 27.19 41.73 20.79 43.16 21.4 50.7 14.24 53.16 15.49 59.6 9.53 62.32 11.69 69.58 5.2 73.47 7.76 79.5 2.5 83.4 6.12 90.05 .58 95.21 4.34 100.58 0 105.49 4.92 111.24 .58 117.44 5.37 121.91 2.15 127.61 8.16 132.21 5.2 139.18 10.82 142.56 8.85 148.81 15.69 152.06 14.24 159.49 20.44 161.62 19.81 168.14 27.18 169.9 27.3 177.47 33.81 178.27 34.55 184.78 42.12 184.97 43.82 192.35 50.35 191.77 52.43 197.99 59.88 196.6 63.07 203.46 69.34 201.54 72.67 207.19 79.66 204.28 84.21 210.33 89.95 207.15 94.37 211.98 100.61 207.68 106.32 212.65 111.26 208.35 116.6 212.15 121.81 206.66 128.43 210.33 132.37 205.09 138.38 207.7 142.33 201.25 149.57 203.46 152.33 197.52 158.76 198.82 161.27 191.68 168.82 192.35 170.29 185.96 176.84 185.9 177.82 178.39 185.34 177.47 185.45 170.92 191.85 169.5 191.24 161.95 198.4 159.49 197.15 153.05 203.11 150.33 200.95 143.08 207.44 139.18 204.88 133.15 210.15 129.25 207.12 123.69 206.52 122.6 212.06 117.44 208.43 112.26"></polygon>
  <circle class="cls-1" cx="106.32" cy="106.33" r="87.94"></circle>
  <circle class="cls-2" cx="106.32" cy="106.33" r="73.38"></circle>
  <g>
    <path class="cls-2" d="m48.24,56.21l.32.27-3.06,3.65-.32-.27c.9-1.07.79-1.49-.81-2.82l-2.55-2.14c-1.59-1.34-2.01-1.36-2.9-.29l-.32-.27,2.77-3.3c1.38-1.64,2.98-1.84,4.11-.89,1.1.92,1.2,2.55-.18,4.19l-.76.91.78.65c1.59,1.34,2.02,1.37,2.92.31Zm-6.3-4.69l-.76.91,2.77,2.33.76-.91c.75-.89.48-1.83-.27-2.46-.76-.64-1.75-.76-2.5.13Z"></path>
    <path class="cls-2" d="m57.11,47.92c-.31-.22-.76-.48-.97-.49.07.99-.35,2.19-1.08,2.87-1.91,1.77-4.93,1.59-6.75-.37-1.8-1.94-1.76-4.98.15-6.75.73-.68,1.95-1.02,2.94-.86,0-.22-.25-.7-.42-1l.29-.27,2.45,2.64-.3.28c-1.6-1.15-3.25-1.3-4.42-.21-1.71,1.58-.64,3.74.55,5.02,1.2,1.3,3.26,2.5,4.97.92,1.17-1.09,1.15-2.74.12-4.42l.3-.28,2.46,2.65-.29.27Z"></path>
    <path class="cls-2" d="m59.23,43.72c.28,1.3.49,1.59,1.83.64l.25.36-3.21,2.27-.25-.36c1.04-.73,1.04-1.04.71-2.71l-1.6-7.57.24-.17,6.6,4.05c1.46.88,1.81.94,2.71.3l.25.36-3.8,2.68-.25-.36c1.22-.86,1.14-1.24,0-1.94l-.89-.54-2.79,1.97.21,1.02Zm-1.1-5.23l.71,3.39,2.24-1.58-2.96-1.81Z"></path>
    <path class="cls-2" d="m67.08,40.28c1.23-.65,1.29-1.08.33-2.92l-1.54-2.95c-.97-1.84-1.34-2.02-2.57-1.37l-.19-.37,2.06-1.08,1.82-.96c1.73-.91,3.11-.51,3.71.64.34.64.31,1.36.04,2,1.13-.08,2.05.43,2.54,1.35.68,1.29.16,2.81-1.74,3.8l-2.19,1.15-2.06,1.08-.19-.37Zm.25-8.98l-1.12.59,1.44,2.74,1.12-.59c.87-.45.96-1.3.58-2.02-.39-.74-1.16-1.18-2.02-.72Zm2.2,3.21l-1.53.8.95,1.8c.63,1.2.86,1.33,1.86.81l.4-.21c1.05-.55,1.17-1.53.72-2.39-.45-.87-1.35-1.36-2.4-.81Z"></path>
    <path class="cls-2" d="m81.5,32c-.15,1.32-.04,1.66,1.53,1.19l.13.42-3.76,1.13-.13-.42c1.21-.36,1.32-.66,1.53-2.35l.89-7.69.28-.08,4.97,5.93c1.1,1.3,1.41,1.46,2.47,1.15l.13.42-4.46,1.33-.12-.42c1.43-.43,1.47-.81.62-1.83l-.67-.8-3.27.98-.12,1.04Zm.63-5.31l-.4,3.44,2.63-.79-2.23-2.65Z"></path>
    <path class="cls-2" d="m97.71,30.43c-.14-.36-.36-.83-.53-.95-.49.86-1.51,1.63-2.49,1.79-2.56.41-4.98-1.41-5.41-4.06-.42-2.61,1.31-5.12,3.87-5.53.99-.16,2.19.24,2.93.92.12-.19.18-.72.21-1.07l.39-.06.57,3.55-.41.07c-.7-1.85-1.98-2.88-3.56-2.63-2.3.37-2.61,2.76-2.33,4.48.28,1.74,1.32,3.89,3.62,3.53,1.58-.25,2.47-1.64,2.56-3.61l.41-.07.57,3.57-.39.06Z"></path>
    <path class="cls-2" d="m107.98,29.97c-.09-.37-.25-.87-.4-1.01-.6.79-1.71,1.42-2.71,1.44-2.6.07-4.75-2.06-4.82-4.74-.07-2.64,1.98-4.9,4.57-4.96,1-.03,2.14.53,2.78,1.3.14-.17.27-.69.35-1.03h.4s.09,3.59.09,3.59h-.42c-.44-1.91-1.58-3.11-3.18-3.07-2.33.06-2.96,2.38-2.91,4.13.05,1.77.79,4.04,3.12,3.98,1.6-.04,2.67-1.3,3.02-3.24h.42s.09,3.61.09,3.61h-.39Z"></path>
    <path class="cls-2" d="m116.86,28.36c.73,1.06,1.59,1.96,2.57,2.21l-.04.41-2.65-.28-2.41-4.14-.58-.06-.11,1.01c-.22,2.07,0,2.45,1.38,2.59l-.04.41-4.74-.49.04-.41c1.39.14,1.67-.18,1.88-2.25l.35-3.31c.21-2.07,0-2.42-1.38-2.57l.04-.41,4.28.45c2.13.22,3.2,1.44,3.04,2.91-.13,1.26-1.19,2.2-2.76,2.24l1.12,1.69Zm-1.48-6.09l-1.18-.12-.38,3.6,1.18.12c1.16.12,1.78-.63,1.88-1.6.1-.99-.35-1.88-1.51-2Z"></path>
    <path class="cls-2" d="m127.57,30.78l.2-.38.41.09-.73,2.41-7.57-1.77.09-.4c1.36.32,1.68.03,2.15-2l.76-3.24c.47-2.02.31-2.4-1.05-2.72l.1-.4,4.47,1.04,2.61.61-.41,2.47-.42-.1v-.43c-.01-.98-.19-1.41-2.03-1.84l-1.36-.32-.71,3.02.12.03c2.02.47,2.24.27,2.56-1.09l.4.09-.92,3.95-.4-.09c.31-1.34.21-1.64-1.81-2.11l-.12-.03-.27,1.17c-.47,2.02-.31,2.41,1.05,2.72l.24.06c1.84.43,2.19.15,2.65-.75Z"></path>
    <path class="cls-2" d="m129.19,32.93c1.3.5,1.66.26,2.4-1.69l1.19-3.11c.74-1.94.63-2.34-.67-2.84l.15-.39,4.12,1.57c3.3,1.26,4.01,3.71,3.14,6.01-.88,2.31-3.05,3.67-6.35,2.4l-4.12-1.57.15-.39Zm6.97-5.73c-.12-.04-.93-.36-1.26-.48l-2.11,5.52c-.48,1.26-.43,1.53.54,1.9l.16.06c2.56.98,3.81-.77,4.41-2.32.59-1.53.83-3.69-1.73-4.67Z"></path>
    <path class="cls-2" d="m139.4,37.53l.19-.37c1.24.64,1.62.45,2.58-1.4l1.54-2.95c.96-1.84.89-2.25-.34-2.9l.19-.37,4.22,2.2-.19.37c-1.24-.64-1.61-.46-2.57,1.38l-1.54,2.95c-.96,1.84-.9,2.27.33,2.92l-.19.37-4.22-2.2Z"></path>
    <path class="cls-2" d="m151.18,34.71c-1.6-1.05-1.93-.85-2.68-.17l-.32.29-.35-.23,1.53-2.05,7.72,5.09-1.29,2.22-.35-.23.14-.4c.33-.95.38-1.34-1.21-2.39l-.99-.65-2.94,4.46c-1.14,1.74-1.11,2.18.05,2.95l-.23.35-4.01-2.64.23-.35c1.16.77,1.58.62,2.73-1.12l2.94-4.46-.99-.65Z"></path>
    <path class="cls-2" d="m159.72,48.84l.35-.25.32.27-1.76,1.81-5.92-5.04.27-.32c1.06.9,1.48.8,2.83-.79l2.16-2.53c1.35-1.58,1.37-2,.31-2.9l.27-.32,3.5,2.98,2.04,1.74-1.49,2.01-.33-.28.19-.38c.45-.88.48-1.34-.96-2.56l-1.06-.9-2.01,2.36.1.08c1.58,1.35,1.87,1.27,2.77.2l.32.27-2.63,3.09-.32-.27c.89-1.05.94-1.36-.65-2.71l-.09-.08-.78.92c-1.35,1.58-1.37,2-.31,2.9l.19.16c1.44,1.23,1.88,1.13,2.7.55Z"></path>
    <path class="cls-2" d="m160.18,51.51c.93,1.04,1.36.99,2.91-.4l2.48-2.22c1.55-1.39,1.63-1.8.7-2.83l.31-.28,2.95,3.28c2.36,2.63,1.87,5.14.05,6.78-1.84,1.65-4.39,1.87-6.75-.76l-2.95-3.28.31-.28Zm8.82-1.91c-.08-.09-.67-.74-.9-1.01l-4.4,3.95c-1.01.9-1.08,1.16-.38,1.94l.11.12c1.83,2.04,3.74,1.06,4.98-.05,1.22-1.1,2.43-2.9.59-4.95Z"></path>
  </g>
  <g>
    <path class="cls-2" d="m178.95,81.64l-.39.14-1.6-4.49.39-.14c.47,1.31.88,1.43,2.84.73l3.13-1.11c1.96-.7,2.19-1.04,1.72-2.36l.39-.14,1.44,4.06c.72,2.02.08,3.5-1.32,4-1.35.48-2.81-.26-3.52-2.28l-.4-1.12-.96.34c-1.96.7-2.21,1.05-1.74,2.36Zm7.23-3.06l-.4-1.12-3.41,1.21.4,1.12c.39,1.1,1.33,1.33,2.25,1.01.94-.33,1.54-1.12,1.15-2.22Z"></path>
    <path class="cls-2" d="m181.61,93.48c.35-.16.8-.41.91-.58-.89-.44-1.72-1.41-1.93-2.39-.56-2.54,1.12-5.06,3.74-5.63,2.58-.57,5.18,1.01,5.74,3.55.21.97-.11,2.2-.75,2.98.19.11.73.14,1.07.15l.09.39-3.51.77-.09-.41c1.8-.8,2.76-2.14,2.42-3.71-.5-2.27-2.9-2.45-4.61-2.07-1.72.38-3.81,1.54-3.31,3.82.34,1.56,1.78,2.38,3.75,2.34l.09.41-3.53.78-.08-.39Z"></path>
    <path class="cls-2" d="m184.16,97.43c-1.26-.42-1.62-.39-1.48,1.25l-.44.04-.33-3.92.44-.04c.1,1.26.37,1.43,1.98,1.98l7.34,2.45.03.29-6.83,3.64c-1.5.81-1.72,1.08-1.63,2.18l-.43.04-.39-4.64.43-.04c.12,1.49.49,1.61,1.67.99l.92-.49-.28-3.4-.99-.33Zm5.07,1.7l-3.28-1.1.23,2.73,3.06-1.63Z"></path>
    <path class="cls-2" d="m183.14,105.95c-.07,1.39.27,1.66,2.35,1.76l3.32.16c2.08.1,2.42-.13,2.49-1.52l.41.02-.11,2.33-.1,2.05c-.09,1.95-1.14,2.94-2.43,2.88-.73-.04-1.33-.42-1.74-.98-.51,1.02-1.41,1.55-2.45,1.5-1.45-.07-2.5-1.29-2.39-3.42l.12-2.47.11-2.33.42.02Zm3.73,5.03l.08-1.72-2.04-.1c-1.35-.06-1.58.07-1.64,1.19l-.02.46c-.06,1.18.73,1.78,1.7,1.83.98.05,1.85-.47,1.91-1.66Zm3.88-.27l.06-1.27-3.09-.15-.06,1.27c-.05.98.63,1.49,1.45,1.53.83.04,1.6-.4,1.65-1.38Z"></path>
    <path class="cls-2" d="m182.98,122.58c-1.07-.8-1.41-.88-1.8.71l-.42-.1.94-3.82.42.1c-.3,1.23-.1,1.47,1.25,2.51l6.18,4.66-.07.28-7.63,1.28c-1.68.29-1.98.48-2.24,1.55l-.42-.1,1.11-4.52.42.1c-.36,1.45-.05,1.68,1.27,1.47l1.03-.18.81-3.31-.83-.63Zm4.26,3.23l-2.76-2.09-.65,2.66,3.42-.57Z"></path>
    <path class="cls-2" d="m176.12,137.34c.38.06.9.11,1.09.02-.49-.86-.64-2.12-.28-3.05.94-2.42,3.74-3.58,6.24-2.61,2.46.96,3.75,3.72,2.8,6.14-.36.93-1.31,1.76-2.28,2.06.1.2.53.52.81.72l-.14.37-3.35-1.31.15-.39c1.94.33,3.49-.25,4.07-1.74.85-2.17-1.05-3.65-2.68-4.28-1.65-.64-4.03-.83-4.87,1.34-.58,1.49.16,2.96,1.82,4.04l-.15.39-3.37-1.31.14-.37Z"></path>
    <path class="cls-2" d="m171.32,146.43c.37.11.88.22,1.07.17-.37-.92-.36-2.19.13-3.07,1.26-2.28,4.19-3.05,6.53-1.76,2.31,1.28,3.22,4.18,1.96,6.46-.48.87-1.54,1.57-2.53,1.74.08.21.46.59.71.82l-.19.35-3.15-1.74.2-.36c1.88.59,3.49.22,4.27-1.18,1.13-2.04-.56-3.76-2.09-4.6-1.55-.86-3.88-1.37-5.01.67-.78,1.4-.24,2.96,1.27,4.24l-.2.37-3.17-1.75.19-.34Z"></path>
    <path class="cls-2" d="m168.21,154.91c-1.28.09-2.5.38-3.21,1.1l-.33-.25,1.58-2.14,4.79.02.35-.47-.82-.6c-1.67-1.23-2.11-1.24-2.93-.12l-.33-.25,2.82-3.84.33.25c-.83,1.12-.69,1.53.99,2.77l2.68,1.97c1.67,1.23,2.09,1.23,2.92.11l.33.25-2.55,3.47c-1.27,1.72-2.86,2.02-4.05,1.15-1.02-.75-1.29-2.14-.53-3.52l-2.02.11Zm6,1.81l.7-.95-2.91-2.15-.7.95c-.69.94-.36,1.86.43,2.43.8.59,1.79.65,2.48-.29Z"></path>
    <path class="cls-2" d="m160.7,162.92l.23.36-.29.3-1.71-1.85,5.36-5.63.3.29c-.96,1.01-.88,1.44.63,2.87l2.41,2.29c1.51,1.43,1.92,1.48,2.88.47l.3.29-3.17,3.33-1.85,1.94-1.92-1.6.3-.32.37.21c.85.49,1.31.56,2.61-.81l.96-1.01-2.24-2.13-.09.09c-1.43,1.51-1.37,1.8-.36,2.76l-.29.3-2.94-2.79.29-.3c.99.94,1.3,1.01,2.74-.5l.09-.09-.88-.83c-1.51-1.43-1.92-1.48-2.88-.47l-.17.18c-1.3,1.37-1.23,1.81-.7,2.67Z"></path>
    <path class="cls-2" d="m158.02,163.22c-1.09.87-1.06,1.3.24,2.93l2.08,2.6c1.3,1.62,1.7,1.73,2.79.86l.26.32-3.44,2.75c-2.76,2.21-5.23,1.58-6.77-.34-1.55-1.93-1.62-4.48,1.14-6.69l3.44-2.75.26.32Zm1.41,8.92c.1-.08.78-.62,1.06-.84l-3.69-4.61c-.84-1.05-1.1-1.14-1.91-.49l-.13.1c-2.14,1.71-1.27,3.68-.23,4.98,1.03,1.28,2.76,2.58,4.9.87Z"></path>
    <path class="cls-2" d="m148.89,169.7l.22.35c-1.18.74-1.21,1.17-.1,2.93l1.77,2.82c1.1,1.76,1.49,1.91,2.67,1.17l.22.35-4.04,2.53-.22-.35c1.18-.74,1.22-1.15.11-2.92l-1.77-2.82c-1.1-1.76-1.5-1.93-2.68-1.19l-.22-.35,4.04-2.53Z"></path>
    <path class="cls-2" d="m145.35,181.28c1.72-.84,1.71-1.23,1.5-2.22l-.09-.42.37-.18,1,2.36-8.3,4.08-1.26-2.23.37-.18.28.33c.65.77.96,1.01,2.68.17l1.06-.52-2.36-4.79c-.92-1.87-1.32-2.06-2.57-1.45l-.18-.37,4.31-2.12.18.37c-1.25.61-1.34,1.05-.42,2.92l2.36,4.79,1.06-.52Z"></path>
    <path class="cls-2" d="m128.84,181.49l.04.43-.39.14-.67-2.43,7.34-2.55.14.39c-1.32.46-1.44.87-.75,2.84l1.09,3.14c.68,1.96,1.03,2.2,2.34,1.74l.14.39-4.34,1.51-2.53.88-.98-2.3.41-.14.24.36c.53.83.91,1.09,2.7.47l1.32-.46-1.02-2.93-.12.04c-1.96.68-2.04.97-1.58,2.29l-.39.14-1.33-3.83.39-.14c.45,1.29.7,1.5,2.66.81l.12-.04-.4-1.14c-.68-1.96-1.03-2.2-2.34-1.74l-.24.08c-1.79.62-1.93,1.04-1.84,2.05Z"></path>
    <path class="cls-2" d="m126.31,180.54c-1.37.28-1.54.67-1.13,2.71l.66,3.26c.41,2.04.72,2.31,2.09,2.04l.08.41-4.32.88c-3.46.7-5.38-.99-5.87-3.39-.49-2.43.61-4.73,4.08-5.43l4.32-.88.08.41Zm-2.82,8.58c.12-.03.98-.2,1.32-.27l-1.17-5.79c-.27-1.33-.46-1.52-1.48-1.31l-.16.03c-2.69.55-2.81,2.69-2.48,4.32.33,1.61,1.28,3.56,3.97,3.02Z"></path>
  </g>
  <g>
    <path class="cls-2" d="m90.16,181.31l.08-.41,4.67.94-.08.41c-1.37-.28-1.68.02-2.09,2.06l-.66,3.26c-.41,2.04-.23,2.41,1.14,2.69l-.08.41-4.22-.85c-2.1-.42-3.04-1.74-2.75-3.18.28-1.41,1.67-2.27,3.77-1.85l1.16.23.2-1c.41-2.04.24-2.43-1.13-2.71Zm-1.1,7.78l1.16.23.71-3.55-1.16-.23c-1.14-.23-1.83.46-2.02,1.42-.2.98.17,1.9,1.31,2.13Z"></path>
    <path class="cls-2" d="m78.63,177.5c-.04.38-.06.9.03,1.08.84-.53,2.09-.75,3.04-.43,2.46.83,3.76,3.56,2.91,6.1-.84,2.5-3.53,3.93-5.99,3.1-.95-.32-1.83-1.23-2.17-2.17-.19.11-.49.56-.68.85l-.37-.12,1.14-3.41.39.13c-.24,1.96.42,3.47,1.93,3.98,2.21.74,3.59-1.23,4.15-2.89.56-1.67.64-4.06-1.57-4.8-1.52-.51-2.95.31-3.94,2.01l-.39-.13,1.15-3.43.37.12Z"></path>
    <path class="cls-2" d="m73.93,177.66c1.01-.87,1.16-1.19-.31-1.91l.19-.39,3.53,1.73-.19.39c-1.14-.56-1.42-.42-2.72.68l-5.88,5.03-.26-.13.39-7.73c.07-1.7-.04-2.04-1.03-2.52l.19-.39,4.18,2.05-.19.39c-1.34-.66-1.63-.41-1.7.92l-.05,1.04,3.06,1.5.79-.68Zm-4.07,3.47l2.63-2.25-2.46-1.21-.17,3.46Z"></path>
    <path class="cls-2" d="m67.15,172.41c-1.16-.77-1.56-.62-2.72,1.11l-1.85,2.77c-1.15,1.73-1.13,2.14.03,2.92l-.23.34-1.94-1.29-1.71-1.14c-1.62-1.08-1.94-2.49-1.22-3.56.4-.6,1.04-.93,1.74-.99-.61-.96-.61-2-.03-2.87.81-1.21,2.39-1.48,4.17-.29l2.06,1.38,1.94,1.29-.23.35Zm-8,4.08l1.06.7,1.72-2.58-1.05-.7c-.81-.54-1.6-.22-2.05.45-.46.69-.48,1.58.33,2.12Zm1.77-3.47l1.44.96,1.13-1.69c.75-1.12.76-1.4-.18-2.02l-.38-.25c-.99-.66-1.9-.29-2.45.52-.54.81-.55,1.83.44,2.49Z"></path>
    <path class="cls-2" d="m52.97,163.72c1.23-.51,1.48-.76.31-1.91l.31-.31,2.79,2.76-.31.31c-.9-.89-1.21-.85-2.79-.22l-7.17,2.9-.21-.21,2.83-7.2c.61-1.59.61-1.94-.18-2.72l.31-.31,3.31,3.28-.31.31c-1.06-1.05-1.42-.91-1.91.33l-.38.97,2.42,2.4.97-.39Zm-4.96,1.99l3.21-1.29-1.95-1.93-1.26,3.23Z"></path>
    <path class="cls-2" d="m43.83,150.24c-.25.29-.55.72-.58.92.99.02,2.15.54,2.76,1.33,1.59,2.05,1.15,5.05-.97,6.69-2.09,1.62-5.12,1.31-6.71-.75-.61-.79-.84-2.03-.6-3.01-.22-.01-.72.19-1.03.33l-.24-.31,2.84-2.2.25.33c-1.29,1.5-1.58,3.12-.6,4.38,1.43,1.84,3.67.97,5.05-.1,1.4-1.08,2.79-3.02,1.36-4.87-.98-1.26-2.62-1.38-4.4-.51l-.25-.33,2.86-2.21.24.31Z"></path>
    <path class="cls-2" d="m38.51,141.45c-.28.26-.64.64-.69.83.98.15,2.06.82,2.56,1.69,1.3,2.25.46,5.16-1.86,6.5-2.29,1.32-5.25.61-6.55-1.64-.5-.86-.56-2.13-.19-3.06-.22-.04-.74.09-1.07.19l-.2-.34,3.11-1.8.21.36c-1.48,1.31-1.99,2.88-1.18,4.26,1.17,2.02,3.51,1.46,5.02.58,1.53-.89,3.17-2.62,2-4.64-.8-1.39-2.42-1.73-4.29-1.1l-.21-.36,3.13-1.81.2.34Z"></path>
    <path class="cls-2" d="m32.84,134.43c.58-1.14.96-2.34.71-3.32l.38-.16,1.03,2.46-2.48,4.1.22.54.94-.39c1.92-.8,2.15-1.17,1.61-2.46l.38-.16,1.84,4.39-.38.16c-.54-1.29-.96-1.38-2.88-.58l-3.07,1.28c-1.92.8-2.13,1.16-1.59,2.45l-.38.16-1.66-3.97c-.83-1.98-.27-3.49,1.1-4.06,1.17-.49,2.5,0,3.29,1.35l.94-1.79Zm-4.64,4.22l.46,1.09,3.34-1.4-.46-1.09c-.45-1.07-1.41-1.26-2.31-.88-.92.38-1.48,1.2-1.03,2.28Z"></path>
    <path class="cls-2" d="m29.83,123.87h-.43s-.11-.39-.11-.39l2.47-.51,2.08,7.49-.4.11c-.37-1.34-.78-1.49-2.78-.93l-3.21.89c-2,.55-2.26.88-1.89,2.23l-.4.11-1.23-4.43-.72-2.58,2.36-.83.12.42-.37.21c-.86.47-1.15.84-.64,2.66l.37,1.34,2.99-.83-.03-.12c-.56-2-.84-2.1-2.18-1.73l-.11-.4,3.91-1.08.11.4c-1.32.37-1.54.6-.98,2.6l.03.12,1.16-.32c2-.55,2.26-.88,1.89-2.23l-.07-.24c-.5-1.82-.92-1.99-1.93-1.97Z"></path>
    <path class="cls-2" d="m30.94,121.42c-.19-1.38-.57-1.58-2.63-1.3l-3.3.45c-2.06.28-2.36.57-2.17,1.95l-.41.06-.59-4.37c-.47-3.5,1.34-5.3,3.77-5.63,2.45-.33,4.68.92,5.15,4.42l.59,4.37-.41.06Zm-8.37-3.38c.02.12.13.99.18,1.34l5.85-.79c1.34-.18,1.55-.36,1.41-1.39l-.02-.16c-.37-2.72-2.5-2.98-4.15-2.75-1.63.22-3.64,1.04-3.27,3.76Z"></path>
    <path class="cls-2" d="m30.08,110.22h-.42c-.03-1.38-.39-1.63-2.46-1.59l-3.33.07c-2.08.04-2.41.3-2.38,1.69h-.42s-.09-4.75-.09-4.75h.42c.03,1.38.36,1.63,2.44,1.59l3.33-.07c2.08-.04,2.43-.3,2.4-1.69h.42s.09,4.75.09,4.75Z"></path>
    <path class="cls-2" d="m21.97,101.26c-.16,1.91.18,2.1,1.13,2.43l.41.14-.03.42-2.54-.36.77-9.22,2.56.07-.03.41-.42.07c-1,.17-1.36.3-1.52,2.21l-.1,1.18,5.32.44c2.07.17,2.45-.07,2.56-1.46l.42.04-.4,4.79-.41-.04c.12-1.39-.21-1.69-2.29-1.86l-5.32-.44-.1,1.18Z"></path>
    <path class="cls-2" d="m30.28,87l-.39-.19.08-.41,2.43.67-1.58,7.61-.41-.08c.28-1.36-.01-1.68-2.05-2.1l-3.26-.68c-2.04-.42-2.41-.25-2.7,1.12l-.41-.08.94-4.5.55-2.62,2.48.35-.09.43-.43.02c-.98.03-1.4.22-1.79,2.07l-.28,1.36,3.03.63.02-.12c.42-2.04.21-2.25-1.15-2.53l.08-.41,3.97.83-.08.41c-1.34-.28-1.64-.17-2.06,1.86l-.03.12,1.18.25c2.04.42,2.41.25,2.7-1.12l.05-.24c.39-1.85.09-2.19-.81-2.63Z"></path>
    <path class="cls-2" d="m32.4,85.31c.46-1.31.21-1.67-1.75-2.36l-3.14-1.11c-1.96-.69-2.36-.57-2.82.75l-.39-.14,1.47-4.16c1.18-3.33,3.61-4.11,5.93-3.29,2.33.83,3.74,2.96,2.56,6.29l-1.47,4.16-.39-.14Zm-5.9-6.83c-.04.12-.33.94-.45,1.27l5.57,1.97c1.28.45,1.54.39,1.89-.59l.06-.16c.92-2.59-.87-3.79-2.43-4.35-1.55-.55-3.71-.74-4.63,1.85Z"></path>
  </g>
  <g>
    <path class="cls-2" d="m176.15,67.95c-.77.44-1.73.18-2.17-.59-.43-.76-.18-1.73.59-2.17.75-.43,1.73-.15,2.16.6.44.77.18,1.73-.57,2.16Z"></path>
    <path class="cls-2" d="m104.24,185.95c0-.89.71-1.59,1.59-1.59.87,0,1.59.71,1.59,1.6,0,.87-.73,1.57-1.6,1.57-.89,0-1.59-.71-1.58-1.58Z"></path>
    <path class="cls-2" d="m38.15,64.62c.77.45,1.02,1.41.57,2.18-.44.75-1.41,1.02-2.18.57-.75-.44-.99-1.42-.55-2.17.45-.77,1.42-1.02,2.16-.58Z"></path>
  </g>
  <circle class="cls-3" cx="105.83" cy="105.84" r="63.56" transform="translate(-43.84 105.83) rotate(-45)"></circle>
  <g>
    <g>
      <path class="cls-1" d="m78.95,85.67v2.69h-1v-7.57h3.06c1.88,0,2.53,1.14,2.53,2.44s-.67,2.44-2.53,2.44h-2.06Zm2.03-3.95h-2.03v3.03h2.03c1.26,0,1.48-.79,1.48-1.51s-.23-1.51-1.48-1.51Z"></path>
      <path class="cls-1" d="m90.72,88.37v-3.42h-4.36v3.42h-1v-7.57h1v3.22h4.36v-3.22h1v7.57h-1Z"></path>
      <path class="cls-1" d="m99.32,88.37l-.7-1.82h-3.53l-.68,1.82h-1.1l3.18-7.72h.76l3.18,7.72h-1.1Zm-3.92-2.6h2.92l-1.45-3.86-1.47,3.86Z"></path>
      <path class="cls-1" d="m103.01,85.37v3h-1v-7.57h3.24c1.88,0,2.5.98,2.5,2.29,0,1.01-.38,1.83-1.42,2.15l1.8,3.13h-1.18l-1.62-3h-2.32Zm2.13-3.65h-2.13v2.72h2.13c1.26,0,1.53-.64,1.53-1.36s-.27-1.36-1.53-1.36Z"></path>
      <path class="cls-1" d="m113.25,87.38l-2.57-5.21.06,6.19h-.98v-7.57h1.29l2.65,5.49,2.65-5.49h1.29v7.57h-.98l.06-6.19-2.57,5.21h-.88Z"></path>
      <path class="cls-1" d="m125.22,88.37l-.7-1.82h-3.53l-.68,1.82h-1.1l3.18-7.72h.76l3.18,7.72h-1.1Zm-3.92-2.6h2.92l-1.45-3.86-1.47,3.86Z"></path>
      <path class="cls-1" d="m130.88,80.65c.74,0,1.59.09,2.25.38v.91c-.59-.2-1.2-.35-2.27-.35-1.91,0-2.5,1.5-2.5,3s.59,3,2.5,3c1.07,0,1.68-.15,2.27-.35v.91c-.67.29-1.51.38-2.25.38-2.56,0-3.57-1.76-3.57-3.94s1.01-3.93,3.57-3.93Z"></path>
      <path class="cls-1" d="m141.86,80.8l-3.18,4.84v2.72h-1.07v-2.72l-3.19-4.84h1.26l2.47,4.04,2.47-4.04h1.26Z"></path>
      <path class="cls-1" d="m81.3,95c.74,0,1.59.09,2.26.38v.91c-.59-.2-1.2-.35-2.27-.35-1.91,0-2.5,1.5-2.5,3s.59,3,2.5,3c1.07,0,1.68-.15,2.27-.35v.91c-.67.29-1.51.38-2.26.38-2.56,0-3.57-1.76-3.57-3.94s1.01-3.93,3.57-3.93Z"></path>
      <path class="cls-1" d="m88.85,102.87c-2.59,0-3.53-1.62-3.53-3.94s.94-3.93,3.53-3.93,3.53,1.62,3.53,3.93-.92,3.94-3.53,3.94Zm0-6.93c-2.04,0-2.47,1.29-2.47,3s.42,3,2.47,3,2.47-1.29,2.47-3-.45-3-2.47-3Z"></path>
      <path class="cls-1" d="m97.86,101.73l-2.57-5.21.06,6.19h-.98v-7.57h1.29l2.65,5.49,2.65-5.49h1.29v7.57h-.98l.06-6.19-2.57,5.21h-.88Z"></path>
      <path class="cls-1" d="m105.5,100.02v2.69h-1v-7.57h3.06c1.88,0,2.53,1.14,2.53,2.44s-.67,2.44-2.53,2.44h-2.06Zm2.03-3.95h-2.03v3.03h2.03c1.26,0,1.48-.79,1.48-1.51s-.23-1.51-1.48-1.51Z"></path>
      <path class="cls-1" d="m115.17,102.87c-2.59,0-3.53-1.62-3.53-3.94s.94-3.93,3.53-3.93,3.53,1.62,3.53,3.93-.92,3.94-3.53,3.94Zm0-6.93c-2.04,0-2.47,1.29-2.47,3s.42,3,2.47,3,2.47-1.29,2.47-3-.45-3-2.47-3Z"></path>
      <path class="cls-1" d="m120.62,100.29v-5.15h1v5.16c0,1.21.94,1.62,2.25,1.62s2.25-.41,2.25-1.62v-5.16h1v5.15c0,1.6-1,2.57-3.25,2.57s-3.25-.97-3.25-2.57Z"></path>
      <path class="cls-1" d="m135.01,102.72l-4.71-5.72.02,5.72h-1v-7.57h.67l4.71,5.72-.02-5.72h1v7.57h-.67Z"></path>
      <path class="cls-1" d="m137.94,102.72v-7.57h2.54c2.6,0,3.66,1.47,3.66,3.78s-1.06,3.78-3.66,3.78h-2.54Zm2.53-.92c2.01,0,2.62-1.15,2.62-2.86s-.6-2.86-2.62-2.86h-1.53v5.72h1.53Z"></path>
      <path class="cls-1" d="m146.52,102.72v-7.57h1v7.57h-1Z"></path>
      <path class="cls-1" d="m155.81,102.72l-4.71-5.72.02,5.72h-1v-7.57h.67l4.71,5.72-.02-5.72h1v7.57h-.67Z"></path>
      <path class="cls-1" d="m163.8,101.76v-2.04h-1.65v-.92h2.65v3.57c-.61.3-1.79.5-2.72.5-2.56,0-3.56-1.76-3.56-3.94s1-3.93,3.56-3.93c.89,0,1.97.15,2.57.45v.91c-.57-.21-1.35-.42-2.57-.42-1.91,0-2.5,1.5-2.5,3s.59,3,2.5,3c.7,0,1.26-.08,1.72-.17Z"></path>
      <path class="cls-1" d="m83.28,117.06l-.7-1.82h-3.53l-.68,1.82h-1.1l3.18-7.72h.76l3.18,7.72h-1.1Zm-3.92-2.6h2.92l-1.45-3.86-1.47,3.86Z"></path>
      <path class="cls-1" d="m88.94,109.35c.74,0,1.59.09,2.26.38v.91c-.59-.2-1.2-.35-2.27-.35-1.91,0-2.5,1.5-2.5,3s.59,3,2.5,3c1.07,0,1.68-.15,2.27-.35v.91c-.67.29-1.51.38-2.26.38-2.56,0-3.57-1.76-3.57-3.94s1.01-3.93,3.57-3.93Z"></path>
      <path class="cls-1" d="m96.58,109.35c.74,0,1.59.09,2.25.38v.91c-.59-.2-1.2-.35-2.27-.35-1.91,0-2.5,1.5-2.5,3s.59,3,2.5,3c1.07,0,1.68-.15,2.27-.35v.91c-.67.29-1.51.38-2.25.38-2.56,0-3.57-1.76-3.57-3.94s1.01-3.93,3.57-3.93Z"></path>
      <path class="cls-1" d="m101.87,114.07v3h-1v-7.57h3.24c1.88,0,2.5.98,2.5,2.29,0,1.01-.38,1.83-1.42,2.15l1.8,3.13h-1.18l-1.62-3h-2.32Zm2.13-3.65h-2.13v2.72h2.13c1.26,0,1.53-.64,1.53-1.36s-.27-1.36-1.53-1.36Z"></path>
      <path class="cls-1" d="m113.61,113.64h-3.99v2.5h4.52v.92h-5.52v-7.57h5.52v.92h-4.52v2.3h3.99v.92Z"></path>
      <path class="cls-1" d="m116.18,117.06v-7.57h2.54c2.6,0,3.66,1.47,3.66,3.78s-1.06,3.78-3.66,3.78h-2.54Zm2.53-.92c2.01,0,2.62-1.15,2.62-2.86s-.6-2.86-2.62-2.86h-1.53v5.72h1.53Z"></path>
      <path class="cls-1" d="m124.76,117.06v-7.57h1v7.57h-1Z"></path>
      <path class="cls-1" d="m131.43,110.42v6.64h-1.07v-6.64h-2.53v-.92h6.13v.92h-2.53Z"></path>
      <path class="cls-1" d="m140.12,117.06l-.7-1.82h-3.53l-.68,1.82h-1.1l3.18-7.72h.76l3.18,7.72h-1.1Zm-3.92-2.6h2.92l-1.45-3.86-1.47,3.86Z"></path>
      <path class="cls-1" d="m144.98,110.42v6.64h-1.07v-6.64h-2.53v-.92h6.13v.92h-2.53Z"></path>
      <path class="cls-1" d="m149.57,117.06v-7.57h1v7.57h-1Z"></path>
      <path class="cls-1" d="m156.43,117.22c-2.59,0-3.53-1.62-3.53-3.94s.94-3.93,3.53-3.93,3.53,1.62,3.53,3.93-.92,3.94-3.53,3.94Zm0-6.93c-2.04,0-2.47,1.29-2.47,3s.42,3,2.47,3,2.47-1.29,2.47-3-.45-3-2.47-3Z"></path>
      <path class="cls-1" d="m167.64,117.06l-4.71-5.72.02,5.72h-1v-7.57h.67l4.71,5.72-.02-5.72h1v7.57h-.67Z"></path>
      <path class="cls-1" d="m77.95,123.84h3.31c1.76,0,2.38.7,2.38,1.97,0,.59-.32,1.17-.77,1.41.71.29,1.14,1.09,1.14,1.91,0,1.3-.61,2.29-2.48,2.29h-3.57v-7.57Zm3.53,3c.98,0,1.15-.41,1.15-1.03s-.18-1.04-1.24-1.04h-2.44v2.07h2.53Zm-.03.92h-2.5v2.72h2.5c1.26,0,1.48-.62,1.48-1.36s-.23-1.36-1.48-1.36Z"></path>
      <path class="cls-1" d="m89.07,131.56c-2.59,0-3.53-1.62-3.53-3.94s.94-3.94,3.53-3.94,3.53,1.62,3.53,3.94-.92,3.94-3.53,3.94Zm0-6.93c-2.04,0-2.47,1.29-2.47,3s.42,3,2.47,3,2.47-1.29,2.47-3-.45-3-2.47-3Z"></path>
      <path class="cls-1" d="m99.39,131.41l-.7-1.82h-3.53l-.68,1.82h-1.1l3.18-7.72h.76l3.18,7.72h-1.1Zm-3.92-2.6h2.92l-1.45-3.86-1.47,3.86Z"></path>
      <path class="cls-1" d="m103.08,128.42v3h-1v-7.57h3.24c1.88,0,2.5.98,2.5,2.29,0,1.01-.38,1.83-1.42,2.15l1.8,3.13h-1.18l-1.62-3h-2.32Zm2.13-3.65h-2.13v2.72h2.13c1.26,0,1.53-.64,1.53-1.36s-.27-1.36-1.53-1.36Z"></path>
      <path class="cls-1" d="m109.83,131.41v-7.57h2.54c2.6,0,3.66,1.47,3.66,3.78s-1.06,3.78-3.66,3.78h-2.54Zm2.53-.92c2.01,0,2.62-1.15,2.62-2.86s-.6-2.86-2.62-2.86h-1.53v5.72h1.53Z"></path>
    </g>
    <g>
      <path class="cls-1" d="m62.43,87.97c1.48-.42,2.61-1.61,2.58-3.96-.03-2.22-1.16-3.28-2.58-3.67-.52-.16-1.1-.19-1.67-.19h-.87v8.02h1.16c.48,0,.93-.06,1.38-.19Z"></path>
      <path class="cls-1" d="m62.33,122.89c.63-.53.95-1.27.95-2.23s-.31-1.68-.94-2.18c-.63-.5-1.54-.75-2.74-.75h-2.11v5.95h2.16c1.16,0,2.05-.26,2.68-.79Z"></path>
      <path class="cls-1" d="m60.13,124.97h-2.64v6.18h2.3c1.3,0,2.27-.25,2.91-.74.64-.5.96-1.25.96-2.25s-.31-1.78-.93-2.34c-.62-.56-1.49-.84-2.6-.84Z"></path>
      <path class="cls-1" d="m49.03,76.47v57.54h23.47v-57.54h-23.47Zm14.78,54.84c-.91.79-2.16,1.18-3.73,1.18h-4.04v-16.06h3.12c1.85,0,3.24.35,4.18,1.04.94.69,1.4,1.72,1.4,3.1,0,.84-.19,1.57-.57,2.18-.38.61-.93,1.1-1.66,1.45.88.37,1.54.88,1.99,1.54.45.66.68,1.46.68,2.39,0,1.33-.46,2.39-1.37,3.18Zm1.54-14.75l-2.76-7.14c-.44.08-.9.13-1.36.13-.95,0-1.85-.18-2.69-.49l-2.88,7.51h-1.67l3.18-8.17c-2.25-1.38-3.76-3.85-3.76-6.67,0-3.22,1.98-6,4.8-7.18v-15.94h2.29c.68,0,1.32.06,1.93.19,2.38.48,4.22,2,4.22,5.18-.03,3.35-1.9,5.05-4.22,5.51-.42.1-.87.13-1.32.13h-1.22v4.44c.44-.08.89-.13,1.35-.13,2.06,0,3.93.8,5.31,2.09l-1.09,1.26c-1.09-1.06-2.58-1.71-4.22-1.71-3.38,0-6.15,2.77-6.15,6.15,0,2.11,1.08,3.97,2.7,5.08l2.71-6.95,2.97,7.59c.73-.29,1.4-.72,1.96-1.24l1.16,1.22c-.73.68-1.58,1.22-2.51,1.58l2.96,7.56h-1.67Z"></path>
      <path class="cls-1" d="m59.15,107.49c.65.24,1.36.38,2.09.38.25,0,.5-.02.74-.05l-1.48-3.84-1.35,3.52Z"></path>
    </g>
  </g>
</svg>
