<?xml version="1.0" encoding="UTF-8" standalone="no"?>
<!DOCTYPE svg PUBLIC "-//W3C//DTD SVG 1.1//EN" "http://www.w3.org/Graphics/SVG/1.1/DTD/svg11.dtd">
<svg xmlns="http://www.w3.org/2000/svg" xmlns:xlink="http://www.w3.org/1999/xlink" version="1.1" width="2409.3389pt" height="1377.8972pt" viewBox="0 0 2409.3389 1377.8972">
<g enable-background="new">
<g id="Layer-1" data-name="Layer 1">
<clipPath id="cp0">
<path transform="matrix(2.7777777,0,0,-2.7777777,0,1377.8972)" d="M 0 496.043 L 867.362 496.043 L 867.362 0 L 0 0 Z "/>
</clipPath>
<g clip-path="url(#cp0)">
<path transform="matrix(2.7777777,0,0,-2.7777777,1687.3058,195.66777)" d="M 0 0 C -37.728 38.502 -103.701 40.192 -172.483 11.144 C -115.389 31.655 -61.905 27.96 -30.337 -4.24 C -7.879 -27.179 -.087 -60.929 -5.281 -98.914 L 28.446 -98.914 C 32.642 -59.268 23.719 -24.202 0 0 " fill="#002777"/>
<path transform="matrix(2.7777777,0,0,-2.7777777,640.20718,1039.3557)" d="M 0 0 C 30.69 -146.651 235.208 -77.264 331.965 47.479 L 287.622 47.479 C 213.988 -31.132 63.836 -100.372 0 0 " fill="#002777"/>
<path transform="matrix(2.7777777,0,0,-2.7777777,722.06106,1058.956)" d="M 0 0 C 31.043 -31.679 85.327 -33.07 141.92 -9.17 C 94.943 -26.046 50.936 -23.006 24.961 3.489 C 11.985 16.743 4.955 34.383 3.398 54.535 L -23.7 54.535 C -21.687 33.047 -13.955 14.239 0 0 " fill="#b3b3b3"/>
<path transform="matrix(2.7777777,0,0,-2.7777777,1617.3007,414.53025)" d="M 0 0 C -11.032 143.342 -200.573 86.611 -284.459 -20.124 L -247.792 -20.124 C -182.695 48.322 -45.227 107.304 0 0 " fill="#b3b3b3"/>
<path transform="matrix(2.7777777,0,0,-2.7777777,93.62416,524.5283)" d="M 0 0 L 84.348 0 L 84.348 -20.731 L 25.004 -20.731 L 25.004 -44.785 L 78.335 -44.785 L 78.335 -65.516 L 25.004 -65.516 L 25.004 -90.046 L 86.089 -90.046 L 86.089 -110.776 L 0 -110.776 Z " fill="#002777"/>
<path transform="matrix(2.7777777,0,0,-2.7777777,647.5036,524.5283)" d="M 0 0 L -40.354 -75.011 L -40.354 -110.776 L -65.358 -110.776 L -65.358 -75.644 L -106.345 0 L -81.183 0 L -52.856 -49.691 L -25.161 0 Z " fill="#002777"/>
<path transform="matrix(2.7777777,0,0,-2.7777777,749.4855,686.2974)" d="M 0 0 L 23.104 0 C 30.067 0 35.421 1.608 39.167 4.827 C 42.91 8.044 44.786 12.764 44.786 18.99 C 44.786 25.108 42.91 29.725 39.167 32.838 C 35.421 35.949 30.067 37.506 23.104 37.506 L 0 37.506 Z M 43.044 -52.54 L 25.479 -20.889 L 23.104 -20.889 L 0 -20.889 L 0 -52.54 L -25.004 -52.54 L -25.004 58.237 L 23.104 58.237 C 37.557 58.237 48.741 54.886 56.655 48.188 C 64.567 41.487 68.522 32.019 68.522 19.781 C 68.522 11.236 66.756 3.93 63.222 -2.136 C 59.686 -8.204 54.542 -12.818 47.792 -15.984 L 71.372 -52.54 Z " fill="#002777"/>
<path transform="matrix(2.7777777,0,0,-2.7777777,1081.8178,716.6283)" d="M 0 0 L 34.973 0 L 17.565 43.044 Z M 51.749 -41.62 L 43.044 -20.098 L -8.23 -20.098 L -16.934 -41.62 L -42.729 -41.62 L 5.379 69.156 L 31.174 69.156 L 78.493 -41.62 Z " fill="#002777"/>
<path transform="matrix(2.7777777,0,0,-2.7777777,1434.801,524.5283)" d="M 0 0 L 25.004 0 L 25.004 -88.937 L 72.479 -88.937 L 72.479 -110.776 L 0 -110.776 Z " fill="#089cdc"/>
<path transform="matrix(2.7777777,0,0,-2.7777777,0,1377.8972)" d="M 603.881 307.213 L 628.885 307.213 L 628.885 196.43701 L 603.881 196.43701 Z " fill="#089cdc"/>
<path transform="matrix(2.7777777,0,0,-2.7777777,1815.0363,524.5283)" d="M 0 0 L 79.6 0 L 79.442 -20.731 L 25.004 -20.731 L 25.004 -47.95 L 75.012 -47.95 L 75.012 -68.84 L 25.004 -68.84 L 25.004 -110.776 L 0 -110.776 Z " fill="#089cdc"/>
<path transform="matrix(2.7777777,0,0,-2.7777777,2076.5855,524.5283)" d="M 0 0 L 84.348 0 L 84.348 -20.731 L 25.004 -20.731 L 25.004 -44.785 L 78.335 -44.785 L 78.335 -65.516 L 25.004 -65.516 L 25.004 -90.046 L 86.089 -90.046 L 86.089 -110.776 L 0 -110.776 Z " fill="#089cdc"/>
</g>
</g>
</g>
</svg>
